# xmcd
#
# Track frame offsets:
# 150
# 28199
# 43617
# 62315
# 72904
# 105636
# 132851
# 149999
# 168701
# 186641
# 197172
# 216401
#
# Disc length: 3242 seconds
#
# Revision: 1
# Processed by: cddbd v1.5.2PL0 Copyright (c) Steve Scherf et al.
# Submitted via: CedeCatalogueitor 2.6.0.6 http://personales.ya.com/cdcatalogueitor
#
DISCID=c50ca80c
DTITLE=The Last Dinosaur - Hooray For Happiness
DYEAR=1900
DGENRE=
TTITLE0=Every Second Is A Second Chance 
TTITLE1=Fool
TTITLE2=I Found My Voice
TTITLE3=Gusts Of Wind Blowing In Aifferent Directions
TTITLE4=Home
TTITLE5=The Greatest Film Never Made
TTITLE6=The Firs Las Dinosaur Song
TTITLE7=Be That Boy
TTITLE8=We Are A Battlefield
TTITLE9=Maps
TTITLE10=The Record Player
TTITLE11=The Song Playing Ant The End Of The Film Of My Lifef
EXTD=
EXTT0=
EXTT1=
EXTT2=
EXTT3=
EXTT4=
EXTT5=
EXTT6=
EXTT7=
EXTT8=
EXTT9=
EXTT10=
EXTT11=
PLAYORDER=
